<?xml version="1.0" standalone="no"?>
<!DOCTYPE svg PUBLIC "-//W3C//DTD SVG 20010904//EN"
 "http://www.w3.org/TR/2001/REC-SVG-20010904/DTD/svg10.dtd">
<svg version="1.0" xmlns="http://www.w3.org/2000/svg"
 width="1024.000000pt" height="1024.000000pt" viewBox="0 0 1024.000000 1024.000000"
 preserveAspectRatio="xMidYMid meet">

<g transform="translate(0.000000,1024.000000) scale(0.100000,-0.100000)"
fill="#000000" stroke="none">
<path d="M4978 8040 c-297 -54 -542 -264 -632 -540 -39 -117 -46 -179 -46
-382 l0 -188 -90 0 c-57 0 -90 4 -90 11 0 6 -15 43 -34 84 -66 143 -159 209
-285 204 -40 -2 -78 3 -96 11 -46 20 -133 17 -187 -7 -113 -51 -208 -188 -245
-353 -10 -44 -22 -80 -28 -80 -5 0 -44 11 -85 24 -41 13 -76 23 -77 23 -1 -1
-20 -56 -43 -122 -23 -66 -73 -210 -112 -320 -38 -110 -118 -342 -178 -515
-60 -173 -118 -342 -129 -374 -17 -48 -19 -62 -9 -72 7 -7 99 -70 203 -140
105 -70 282 -189 395 -265 l205 -138 175 60 c96 32 176 59 178 59 4 0 -36 54
-110 148 -32 40 -58 76 -58 78 0 3 17 -9 38 -26 102 -87 173 -142 176 -139 3
4 14 78 72 504 7 55 22 166 33 246 17 124 44 393 65 656 l6 71 -73 24 c-62 20
-72 27 -75 48 -5 49 9 54 83 31 37 -12 89 -21 116 -21 37 0 49 -4 49 -15 0
-22 50 -32 62 -11 8 14 29 16 141 16 139 0 201 -11 275 -49 61 -31 128 -104
165 -181 30 -61 32 -72 32 -175 0 -106 -1 -113 -37 -188 -68 -142 -200 -244
-350 -269 -37 -6 -73 -8 -80 -5 -11 4 -17 63 -27 263 -12 244 -30 526 -34 530
-3 4 -196 -32 -201 -37 -2 -2 -11 -141 -20 -309 -9 -168 -25 -447 -35 -620
-37 -608 -36 -563 -15 -556 11 3 48 14 84 25 36 11 104 31 153 46 l87 26 -107
105 c-82 80 -97 98 -63 76 59 -38 175 -102 185 -102 4 0 5 54 1 120 l-7 120
29 0 c160 0 334 -109 407 -255 28 -56 30 -68 30 -170 0 -103 -2 -114 -32 -177
-63 -133 -168 -209 -315 -228 -87 -11 -244 -12 -471 -3 l-167 6 0 169 c0 129
-3 168 -13 168 -16 0 -144 -35 -225 -61 l-62 -21 2 -281 3 -282 490 0 490 1
90 27 c129 40 207 87 300 181 89 89 137 170 177 296 19 62 23 97 23 200 0 111
-3 135 -29 213 -45 138 -141 270 -254 348 l-42 30 48 38 c201 159 307 413 273
654 -31 222 -141 400 -318 516 -63 42 -132 70 -260 107 -20 5 -17 389 2 473
40 167 183 349 335 423 97 48 183 68 295 68 182 0 310 -54 440 -184 54 -54 92
-104 117 -151 63 -121 68 -153 68 -402 l0 -223 -247 -2 -248 -3 0 -1305 0
-1305 435 -3 c476 -2 548 3 675 54 259 104 420 335 432 619 6 141 -12 230 -71
351 -46 91 -131 193 -216 256 l-35 27 25 17 c14 9 58 50 97 90 210 214 252
555 105 839 -44 84 -169 213 -254 263 -119 70 -259 102 -450 102 l-88 0 0 218
c0 237 -7 285 -59 409 -96 233 -275 396 -510 465 -75 22 -268 32 -343 18z
m-1372 -906 c-30 -30 -66 -73 -80 -97 -25 -43 -76 -184 -76 -211 0 -10 48 -30
161 -68 l161 -53 -6 -34 c-3 -18 -7 -35 -8 -37 -2 -1 -100 28 -218 65 -156 49
-216 72 -218 84 -4 21 31 149 58 209 45 102 129 179 215 198 67 14 69 1 11
-56z m276 22 c65 -28 135 -114 162 -203 7 -23 6 -23 -82 -23 l-90 0 -6 54 c-4
29 -20 81 -37 116 -16 34 -29 64 -29 66 0 9 50 3 82 -10z m-138 -39 c20 -30
41 -92 50 -144 5 -37 4 -42 -16 -49 -34 -10 -38 -21 -38 -103 0 -54 -3 -72
-12 -69 -7 3 -59 18 -116 33 l-103 29 6 30 c14 66 85 195 136 246 56 56 72 60
93 27z m2401 -497 c282 -46 421 -357 278 -622 -36 -66 -131 -153 -200 -185
-98 -45 -158 -52 -430 -53 l-253 0 0 435 0 435 273 0 c149 0 299 -5 332 -10z
m16 -1186 c167 -50 273 -154 314 -309 38 -148 -7 -300 -119 -403 -104 -95
-211 -115 -591 -110 l-220 3 -3 418 -2 417 283 0 c231 0 293 -3 338 -16z"/>
<path d="M4218 3733 c-2 -5 -2 -205 0 -446 l3 -439 212 4 c195 3 216 5 261 26
118 54 160 117 159 235 -1 79 -30 139 -87 178 -41 27 -42 31 -19 50 30 25 53
91 53 154 0 102 -47 173 -140 213 -37 16 -79 21 -242 26 -108 3 -198 3 -200
-1z m365 -147 c47 -20 69 -50 71 -95 1 -50 -28 -91 -75 -108 -19 -7 -73 -12
-121 -12 l-88 -1 0 115 0 115 90 0 c54 0 104 -6 123 -14z m44 -367 c54 -20 73
-48 73 -104 0 -100 -43 -125 -215 -125 l-115 0 0 120 0 120 114 0 c63 0 127
-5 143 -11z"/>
<path d="M1901 3303 c1 -235 4 -434 7 -440 7 -20 359 -18 437 2 126 32 195
118 195 242 0 95 -35 164 -102 199 l-27 14 32 46 c30 43 32 51 32 134 0 82 -2
91 -30 132 -17 23 -51 54 -75 68 -43 24 -52 25 -258 28 l-214 3 3 -428z m376
280 c67 -32 81 -122 28 -176 -30 -30 -63 -37 -166 -37 l-79 0 0 115 0 115 91
0 c64 0 101 -5 126 -17z m47 -367 c44 -18 66 -52 66 -99 0 -98 -49 -127 -214
-127 l-116 0 0 120 0 120 115 0 c76 0 127 -5 149 -14z"/>
<path d="M5163 3511 c-142 -53 -221 -183 -211 -350 8 -133 74 -238 184 -292
94 -45 245 -35 326 23 l28 19 0 -30 0 -31 75 0 75 0 0 335 0 335 -75 0 c-68 0
-75 -2 -75 -20 0 -25 -1 -25 -53 2 -60 31 -202 36 -274 9z m215 -136 c80 -34
115 -90 116 -185 1 -117 -64 -194 -172 -207 -149 -17 -254 116 -212 269 30
108 160 167 268 123z"/>
<path d="M6600 3514 c-146 -53 -220 -168 -220 -342 0 -72 5 -96 26 -142 51
-111 148 -179 265 -188 79 -5 156 11 205 44 19 13 37 24 39 24 3 0 5 -13 5
-30 l0 -30 75 0 75 0 0 335 0 335 -80 0 c-74 0 -80 -1 -80 -21 0 -11 -3 -19
-7 -17 -68 35 -96 42 -173 45 -60 2 -98 -2 -130 -13z m207 -139 c83 -35 117
-95 111 -200 -6 -128 -71 -190 -199 -190 -54 0 -72 5 -106 27 -92 61 -110 220
-36 309 53 63 153 86 230 54z"/>
<path d="M7393 3512 c-96 -34 -166 -106 -199 -205 -24 -69 -24 -186 0 -255 22
-65 96 -149 161 -181 91 -45 242 -38 320 15 l35 23 0 -30 0 -30 78 3 77 3 3
333 2 332 -80 0 c-74 0 -80 -1 -80 -21 0 -11 -3 -19 -7 -17 -68 35 -96 42
-173 45 -63 2 -98 -1 -137 -15z m214 -137 c50 -21 72 -42 94 -90 27 -59 25
-140 -7 -202 -20 -42 -35 -57 -77 -77 -78 -40 -171 -31 -231 22 -80 72 -72
261 15 323 57 40 143 50 206 24z"/>
<path d="M8203 3505 c-42 -25 -43 -26 -43 -6 0 19 -6 21 -75 21 l-75 0 0 -335
0 -335 75 0 75 0 0 226 0 226 34 34 c30 30 40 34 84 34 l51 0 6 58 c13 104 16
97 -40 100 -39 2 -59 -3 -92 -23z"/>
<path d="M2665 3508 c-3 -7 -1 -116 3 -243 9 -245 11 -255 68 -331 75 -99 278
-124 389 -49 l34 24 3 -27 c3 -26 5 -27 76 -30 l72 -3 0 336 0 335 -74 0 -75
0 -3 -219 c-3 -250 -5 -256 -89 -299 -55 -29 -144 -27 -187 4 -56 42 -62 70
-62 286 0 108 -3 203 -6 212 -8 20 -142 23 -149 4z"/>
<path d="M3424 3488 c7 -18 57 -130 111 -248 53 -118 112 -250 131 -293 l34
-78 -30 -77 c-43 -110 -38 -106 -104 -95 -62 11 -55 18 -76 -76 -10 -44 -10
-55 1 -62 22 -14 156 -10 193 5 48 20 76 63 144 226 33 80 113 269 177 420 65
151 120 283 122 293 5 16 -2 18 -76 15 l-82 -3 -92 -232 c-51 -128 -95 -233
-98 -233 -4 0 -23 39 -43 88 -20 48 -65 153 -99 235 l-62 147 -83 0 -82 0 14
-32z"/>
<path d="M5780 3445 l0 -75 161 -2 160 -3 -138 -150 c-221 -241 -203 -215
-203 -296 l0 -69 283 2 282 3 0 65 0 65 -189 5 -189 5 164 175 c217 231 209
220 209 291 l0 59 -270 0 -270 0 0 -75z"/>
</g>
</svg>
